<svg width="131" height="44" viewBox="0 0 131 44" fill="none" xmlns="http://www.w3.org/2000/svg">
<path d="M17.1421 2.73486V14.4439H12.4419V29.5649H17.1421V41.2649H0V2.73486H17.1421Z" fill="url(#paint0_linear_1_3938)"/>
<path d="M40.0002 2.73486V41.2649H22.8633V29.5649H27.5632V14.4439H22.8633V2.73486H40.0002Z" fill="url(#paint1_linear_1_3938)"/>
<path d="M62.794 13.356C62.794 12.96 62.752 12.582 62.668 12.222C62.584 11.862 62.452 11.544 62.272 11.268C62.092 10.992 61.864 10.776 61.588 10.62C61.324 10.452 61 10.368 60.616 10.368C60.244 10.368 59.92 10.452 59.644 10.62C59.368 10.776 59.14 10.992 58.96 11.268C58.78 11.544 58.648 11.862 58.564 12.222C58.48 12.582 58.438 12.96 58.438 13.356C58.438 13.74 58.48 14.112 58.564 14.472C58.648 14.832 58.78 15.15 58.96 15.426C59.14 15.702 59.368 15.924 59.644 16.092C59.92 16.248 60.244 16.326 60.616 16.326C61 16.326 61.324 16.248 61.588 16.092C61.864 15.924 62.092 15.702 62.272 15.426C62.452 15.15 62.584 14.832 62.668 14.472C62.752 14.112 62.794 13.74 62.794 13.356ZM55.972 5.148H58.528V9.828H58.564C58.876 9.348 59.296 9 59.824 8.784C60.364 8.556 60.922 8.442 61.498 8.442C61.966 8.442 62.428 8.538 62.884 8.73C63.34 8.922 63.748 9.216 64.108 9.612C64.48 10.008 64.78 10.518 65.008 11.142C65.236 11.754 65.35 12.486 65.35 13.338C65.35 14.19 65.236 14.928 65.008 15.552C64.78 16.164 64.48 16.668 64.108 17.064C63.748 17.46 63.34 17.754 62.884 17.946C62.428 18.138 61.966 18.234 61.498 18.234C60.814 18.234 60.202 18.126 59.662 17.91C59.122 17.694 58.714 17.328 58.438 16.812H58.402V18H55.972V5.148ZM66.9759 8.694H69.4059V10.422H69.4419C69.5619 10.134 69.7239 9.87 69.9279 9.63C70.1319 9.378 70.3659 9.168 70.6299 9C70.8939 8.82 71.1759 8.682 71.4759 8.586C71.7759 8.49 72.0879 8.442 72.4119 8.442C72.5799 8.442 72.7659 8.472 72.9699 8.532V10.908C72.8499 10.884 72.7059 10.866 72.5379 10.854C72.3699 10.83 72.2079 10.818 72.0519 10.818C71.5839 10.818 71.1879 10.896 70.8639 11.052C70.5399 11.208 70.2759 11.424 70.0719 11.7C69.8799 11.964 69.7419 12.276 69.6579 12.636C69.5739 12.996 69.5319 13.386 69.5319 13.806V18H66.9759V8.694ZM79.9196 12.348C79.7996 11.7 79.5836 11.208 79.2716 10.872C78.9716 10.536 78.5096 10.368 77.8856 10.368C77.4776 10.368 77.1356 10.44 76.8596 10.584C76.5956 10.716 76.3796 10.884 76.2116 11.088C76.0556 11.292 75.9416 11.508 75.8696 11.736C75.8096 11.964 75.7736 12.168 75.7616 12.348H79.9196ZM75.7616 13.968C75.7976 14.796 76.0076 15.396 76.3916 15.768C76.7756 16.14 77.3276 16.326 78.0476 16.326C78.5636 16.326 79.0076 16.2 79.3796 15.948C79.7516 15.684 79.9796 15.408 80.0636 15.12H82.3136C81.9536 16.236 81.4016 17.034 80.6576 17.514C79.9136 17.994 79.0136 18.234 77.9576 18.234C77.2256 18.234 76.5656 18.12 75.9776 17.892C75.3896 17.652 74.8916 17.316 74.4836 16.884C74.0756 16.452 73.7576 15.936 73.5296 15.336C73.3136 14.736 73.2056 14.076 73.2056 13.356C73.2056 12.66 73.3196 12.012 73.5476 11.412C73.7756 10.812 74.0996 10.296 74.5196 9.864C74.9396 9.42 75.4376 9.072 76.0136 8.82C76.6016 8.568 77.2496 8.442 77.9576 8.442C78.7496 8.442 79.4396 8.598 80.0276 8.91C80.6156 9.21 81.0956 9.618 81.4676 10.134C81.8516 10.65 82.1276 11.238 82.2956 11.898C82.4636 12.558 82.5236 13.248 82.4756 13.968H75.7616ZM83.8835 11.556C83.9195 10.956 84.0695 10.458 84.3335 10.062C84.5975 9.666 84.9335 9.348 85.3415 9.108C85.7495 8.868 86.2055 8.7 86.7095 8.604C87.2255 8.496 87.7415 8.442 88.2575 8.442C88.7255 8.442 89.1995 8.478 89.6795 8.55C90.1595 8.61 90.5975 8.736 90.9935 8.928C91.3895 9.12 91.7135 9.39 91.9655 9.738C92.2175 10.074 92.3435 10.524 92.3435 11.088V15.93C92.3435 16.35 92.3675 16.752 92.4155 17.136C92.4635 17.52 92.5475 17.808 92.6675 18H90.0755C90.0275 17.856 89.9855 17.712 89.9495 17.568C89.9255 17.412 89.9075 17.256 89.8955 17.1C89.4875 17.52 89.0075 17.814 88.4555 17.982C87.9035 18.15 87.3395 18.234 86.7635 18.234C86.3195 18.234 85.9055 18.18 85.5215 18.072C85.1375 17.964 84.8015 17.796 84.5135 17.568C84.2255 17.34 83.9975 17.052 83.8295 16.704C83.6735 16.356 83.5955 15.942 83.5955 15.462C83.5955 14.934 83.6855 14.502 83.8655 14.166C84.0575 13.818 84.2975 13.542 84.5855 13.338C84.8855 13.134 85.2215 12.984 85.5935 12.888C85.9775 12.78 86.3615 12.696 86.7455 12.636C87.1295 12.576 87.5075 12.528 87.8795 12.492C88.2515 12.456 88.5815 12.402 88.8695 12.33C89.1575 12.258 89.3855 12.156 89.5535 12.024C89.7215 11.88 89.7995 11.676 89.7875 11.412C89.7875 11.136 89.7395 10.92 89.6435 10.764C89.5595 10.596 89.4395 10.47 89.2835 10.386C89.1395 10.29 88.9655 10.23 88.7615 10.206C88.5695 10.17 88.3595 10.152 88.1315 10.152C87.6275 10.152 87.2315 10.26 86.9435 10.476C86.6555 10.692 86.4875 11.052 86.4395 11.556H83.8835ZM89.7875 13.446C89.6795 13.542 89.5415 13.62 89.3735 13.68C89.2175 13.728 89.0435 13.77 88.8515 13.806C88.6715 13.842 88.4795 13.872 88.2755 13.896C88.0715 13.92 87.8675 13.95 87.6635 13.986C87.4715 14.022 87.2795 14.07 87.0875 14.13C86.9075 14.19 86.7455 14.274 86.6015 14.382C86.4695 14.478 86.3615 14.604 86.2775 14.76C86.1935 14.916 86.1515 15.114 86.1515 15.354C86.1515 15.582 86.1935 15.774 86.2775 15.93C86.3615 16.086 86.4755 16.212 86.6195 16.308C86.7635 16.392 86.9315 16.452 87.1235 16.488C87.3155 16.524 87.5135 16.542 87.7175 16.542C88.2215 16.542 88.6115 16.458 88.8875 16.29C89.1635 16.122 89.3675 15.924 89.4995 15.696C89.6315 15.456 89.7095 15.216 89.7335 14.976C89.7695 14.736 89.7875 14.544 89.7875 14.4V13.446ZM94.5615 5.148H97.1175V12.042L100.339 8.694H103.363L99.8535 12.114L103.759 18H100.663L98.1075 13.842L97.1175 14.796V18H94.5615V5.148ZM107.291 7.254H104.735V5.148H107.291V7.254ZM104.735 8.694H107.291V18H104.735V8.694ZM109.304 8.694H111.734V9.99H111.788C112.112 9.45 112.532 9.06 113.048 8.82C113.564 8.568 114.092 8.442 114.632 8.442C115.316 8.442 115.874 8.538 116.306 8.73C116.75 8.91 117.098 9.168 117.35 9.504C117.602 9.828 117.776 10.23 117.872 10.71C117.98 11.178 118.034 11.7 118.034 12.276V18H115.478V12.744C115.478 11.976 115.358 11.406 115.118 11.034C114.878 10.65 114.452 10.458 113.84 10.458C113.144 10.458 112.64 10.668 112.328 11.088C112.016 11.496 111.86 12.174 111.86 13.122V18H109.304V8.694ZM124.312 15.804C124.672 15.804 124.99 15.732 125.266 15.588C125.542 15.444 125.77 15.252 125.95 15.012C126.13 14.772 126.262 14.502 126.346 14.202C126.442 13.89 126.49 13.566 126.49 13.23C126.49 12.846 126.454 12.486 126.382 12.15C126.31 11.802 126.19 11.496 126.022 11.232C125.854 10.968 125.632 10.758 125.356 10.602C125.08 10.446 124.732 10.368 124.312 10.368C123.952 10.368 123.64 10.44 123.376 10.584C123.124 10.728 122.908 10.926 122.728 11.178C122.56 11.418 122.434 11.7 122.35 12.024C122.278 12.336 122.242 12.666 122.242 13.014C122.242 13.35 122.272 13.686 122.332 14.022C122.404 14.346 122.518 14.64 122.674 14.904C122.842 15.168 123.058 15.384 123.322 15.552C123.586 15.72 123.916 15.804 124.312 15.804ZM128.92 17.406C128.92 17.778 128.866 18.204 128.758 18.684C128.662 19.164 128.446 19.608 128.11 20.016C127.774 20.436 127.288 20.79 126.652 21.078C126.016 21.366 125.164 21.51 124.096 21.51C123.64 21.51 123.172 21.45 122.692 21.33C122.224 21.222 121.792 21.048 121.396 20.808C121.012 20.568 120.688 20.256 120.424 19.872C120.172 19.5 120.028 19.05 119.992 18.522H122.53C122.65 19.002 122.884 19.332 123.232 19.512C123.58 19.704 123.982 19.8 124.438 19.8C125.158 19.8 125.68 19.584 126.004 19.152C126.34 18.72 126.502 18.174 126.49 17.514V16.29H126.454C126.178 16.782 125.782 17.148 125.266 17.388C124.762 17.616 124.228 17.73 123.664 17.73C122.968 17.73 122.368 17.61 121.864 17.37C121.36 17.118 120.946 16.782 120.622 16.362C120.298 15.93 120.058 15.432 119.902 14.868C119.758 14.292 119.686 13.686 119.686 13.05C119.686 12.45 119.77 11.874 119.938 11.322C120.118 10.758 120.376 10.266 120.712 9.846C121.048 9.414 121.462 9.072 121.954 8.82C122.458 8.568 123.034 8.442 123.682 8.442C124.294 8.442 124.828 8.556 125.284 8.784C125.752 9.012 126.142 9.396 126.454 9.936H126.49V8.694H128.92V17.406Z" fill="white"/>
<path d="M59.212 29.694H61.084V31.404H59.212V36.012C59.212 36.444 59.284 36.732 59.428 36.876C59.572 37.02 59.86 37.092 60.292 37.092C60.436 37.092 60.574 37.086 60.706 37.074C60.838 37.062 60.964 37.044 61.084 37.02V39C60.868 39.036 60.628 39.06 60.364 39.072C60.1 39.084 59.842 39.09 59.59 39.09C59.194 39.09 58.816 39.06 58.456 39C58.108 38.952 57.796 38.85 57.52 38.694C57.256 38.538 57.046 38.316 56.89 38.028C56.734 37.74 56.656 37.362 56.656 36.894V31.404H55.108V29.694H56.656V26.904H59.212V29.694ZM62.3001 26.148H64.8561V30.99H64.9101C65.2341 30.45 65.6481 30.06 66.1521 29.82C66.6561 29.568 67.1481 29.442 67.6281 29.442C68.3121 29.442 68.8701 29.538 69.3021 29.73C69.7461 29.91 70.0941 30.168 70.3461 30.504C70.5981 30.828 70.7721 31.23 70.8681 31.71C70.9761 32.178 71.0301 32.7 71.0301 33.276V39H68.4741V33.744C68.4741 32.976 68.3541 32.406 68.1141 32.034C67.8741 31.65 67.4481 31.458 66.8361 31.458C66.1401 31.458 65.6361 31.668 65.3241 32.088C65.0121 32.496 64.8561 33.174 64.8561 34.122V39H62.3001V26.148ZM79.234 33.348C79.114 32.7 78.898 32.208 78.586 31.872C78.286 31.536 77.824 31.368 77.2 31.368C76.792 31.368 76.45 31.44 76.174 31.584C75.91 31.716 75.694 31.884 75.526 32.088C75.37 32.292 75.256 32.508 75.184 32.736C75.124 32.964 75.088 33.168 75.076 33.348H79.234ZM75.076 34.968C75.112 35.796 75.322 36.396 75.706 36.768C76.09 37.14 76.642 37.326 77.362 37.326C77.878 37.326 78.322 37.2 78.694 36.948C79.066 36.684 79.294 36.408 79.378 36.12H81.628C81.268 37.236 80.716 38.034 79.972 38.514C79.228 38.994 78.328 39.234 77.272 39.234C76.54 39.234 75.88 39.12 75.292 38.892C74.704 38.652 74.206 38.316 73.798 37.884C73.39 37.452 73.072 36.936 72.844 36.336C72.628 35.736 72.52 35.076 72.52 34.356C72.52 33.66 72.634 33.012 72.862 32.412C73.09 31.812 73.414 31.296 73.834 30.864C74.254 30.42 74.752 30.072 75.328 29.82C75.916 29.568 76.564 29.442 77.272 29.442C78.064 29.442 78.754 29.598 79.342 29.91C79.93 30.21 80.41 30.618 80.782 31.134C81.166 31.65 81.442 32.238 81.61 32.898C81.778 33.558 81.838 34.248 81.79 34.968H75.076ZM88.3878 26.148H90.9438V39H88.3878V26.148ZM95.5844 28.254H93.0284V26.148H95.5844V28.254ZM93.0284 29.694H95.5844V39H93.0284V29.694ZM97.597 29.694H100.027V30.99H100.081C100.405 30.45 100.825 30.06 101.341 29.82C101.857 29.568 102.385 29.442 102.925 29.442C103.609 29.442 104.167 29.538 104.599 29.73C105.043 29.91 105.391 30.168 105.643 30.504C105.895 30.828 106.069 31.23 106.165 31.71C106.273 32.178 106.327 32.7 106.327 33.276V39H103.771V33.744C103.771 32.976 103.651 32.406 103.411 32.034C103.171 31.65 102.745 31.458 102.133 31.458C101.437 31.458 100.933 31.668 100.621 32.088C100.309 32.496 100.153 33.174 100.153 34.122V39H97.597V29.694ZM114.531 33.348C114.411 32.7 114.195 32.208 113.883 31.872C113.583 31.536 113.121 31.368 112.497 31.368C112.089 31.368 111.747 31.44 111.471 31.584C111.207 31.716 110.991 31.884 110.823 32.088C110.667 32.292 110.553 32.508 110.481 32.736C110.421 32.964 110.385 33.168 110.373 33.348H114.531ZM110.373 34.968C110.409 35.796 110.619 36.396 111.003 36.768C111.387 37.14 111.939 37.326 112.659 37.326C113.175 37.326 113.619 37.2 113.991 36.948C114.363 36.684 114.591 36.408 114.675 36.12H116.925C116.565 37.236 116.013 38.034 115.269 38.514C114.525 38.994 113.625 39.234 112.569 39.234C111.837 39.234 111.177 39.12 110.589 38.892C110.001 38.652 109.503 38.316 109.095 37.884C108.687 37.452 108.369 36.936 108.141 36.336C107.925 35.736 107.817 35.076 107.817 34.356C107.817 33.66 107.931 33.012 108.159 32.412C108.387 31.812 108.711 31.296 109.131 30.864C109.551 30.42 110.049 30.072 110.625 29.82C111.213 29.568 111.861 29.442 112.569 29.442C113.361 29.442 114.051 29.598 114.639 29.91C115.227 30.21 115.707 30.618 116.079 31.134C116.463 31.65 116.739 32.238 116.907 32.898C117.075 33.558 117.135 34.248 117.087 34.968H110.373ZM120.583 35.976C120.583 36.252 120.637 36.492 120.745 36.696C120.865 36.888 121.015 37.05 121.195 37.182C121.375 37.302 121.579 37.392 121.807 37.452C122.047 37.512 122.293 37.542 122.545 37.542C122.725 37.542 122.911 37.524 123.103 37.488C123.307 37.44 123.487 37.374 123.643 37.29C123.811 37.194 123.949 37.074 124.057 36.93C124.165 36.774 124.219 36.582 124.219 36.354C124.219 35.97 123.961 35.682 123.445 35.49C122.941 35.298 122.233 35.106 121.321 34.914C120.949 34.83 120.583 34.734 120.223 34.626C119.875 34.506 119.563 34.356 119.287 34.176C119.011 33.984 118.789 33.75 118.621 33.474C118.453 33.186 118.369 32.838 118.369 32.43C118.369 31.83 118.483 31.338 118.711 30.954C118.951 30.57 119.263 30.27 119.647 30.054C120.031 29.826 120.463 29.67 120.943 29.586C121.423 29.49 121.915 29.442 122.419 29.442C122.923 29.442 123.409 29.49 123.877 29.586C124.357 29.682 124.783 29.844 125.155 30.072C125.527 30.3 125.833 30.606 126.073 30.99C126.325 31.362 126.475 31.836 126.523 32.412H124.093C124.057 31.92 123.871 31.59 123.535 31.422C123.199 31.242 122.803 31.152 122.347 31.152C122.203 31.152 122.047 31.164 121.879 31.188C121.711 31.2 121.555 31.236 121.411 31.296C121.279 31.356 121.165 31.446 121.069 31.566C120.973 31.674 120.925 31.824 120.925 32.016C120.925 32.244 121.009 32.43 121.177 32.574C121.345 32.718 121.561 32.838 121.825 32.934C122.101 33.018 122.413 33.096 122.761 33.168C123.109 33.24 123.463 33.318 123.823 33.402C124.195 33.486 124.555 33.588 124.903 33.708C125.263 33.828 125.581 33.99 125.857 34.194C126.133 34.386 126.355 34.632 126.523 34.932C126.691 35.22 126.775 35.58 126.775 36.012C126.775 36.624 126.649 37.14 126.397 37.56C126.157 37.968 125.839 38.298 125.443 38.55C125.047 38.802 124.591 38.976 124.075 39.072C123.571 39.18 123.055 39.234 122.527 39.234C121.987 39.234 121.459 39.18 120.943 39.072C120.427 38.964 119.965 38.784 119.557 38.532C119.161 38.28 118.831 37.95 118.567 37.542C118.315 37.122 118.177 36.6 118.153 35.976H120.583Z" fill="white"/>
<defs>
<linearGradient id="paint0_linear_1_3938" x1="0" y1="21.9999" x2="17.1421" y2="21.9999" gradientUnits="userSpaceOnUse">
<stop stop-color="#E20613"/>
<stop offset="1" stop-color="#E5332A"/>
</linearGradient>
<linearGradient id="paint1_linear_1_3938" x1="22.8633" y1="21.9999" x2="40.0002" y2="21.9999" gradientUnits="userSpaceOnUse">
<stop stop-color="#E20613"/>
<stop offset="1" stop-color="#E5332A"/>
</linearGradient>
</defs>
</svg>
